<?xml version="1.0" encoding="UTF-8"?>
<!DOCTYPE svg PUBLIC "-//W3C//DTD SVG 1.1//EN" "http://www.w3.org/Graphics/SVG/1.1/DTD/svg11.dtd">
<svg xmlns="http://www.w3.org/2000/svg" version="1.1" width="512px" height="512px" style="shape-rendering:geometricPrecision; text-rendering:geometricPrecision; image-rendering:optimizeQuality; fill-rule:evenodd; clip-rule:evenodd" xmlns:xlink="http://www.w3.org/1999/xlink">
<g><path style="opacity:0.99" fill="#0099cc" d="M 234.5,-0.5 C 248.5,-0.5 262.5,-0.5 276.5,-0.5C 375.325,11.5147 446.491,62.1813 490,151.5C 501.423,178.197 508.59,205.863 511.5,234.5C 511.5,248.5 511.5,262.5 511.5,276.5C 499.484,375.325 448.818,446.492 359.5,490C 332.803,501.423 305.137,508.59 276.5,511.5C 262.5,511.5 248.5,511.5 234.5,511.5C 135.674,499.483 64.507,448.816 21,359.5C 9.57666,332.802 2.40999,305.136 -0.5,276.5C -0.5,262.5 -0.5,248.5 -0.5,234.5C 11.5147,135.675 62.1813,64.5086 151.5,21C 178.198,9.57666 205.864,2.40999 234.5,-0.5 Z M 176.5,104.5 C 231.859,104.034 287.192,104.534 342.5,106C 376.888,114.387 397.721,135.887 405,170.5C 405.667,226.833 405.667,283.167 405,339.5C 403.716,347.688 401.049,355.355 397,362.5C 355.833,321.333 314.667,280.167 273.5,239C 272.833,238.333 272.167,238.333 271.5,239C 260.5,250 249.5,261 238.5,272C 289.833,323.333 341.167,374.667 392.5,426C 387.5,431 382.5,436 377.5,441C 376.833,441.667 376.167,441.667 375.5,441C 354.005,420.424 328.339,408.757 298.5,406C 257.167,405.667 215.833,405.333 174.5,405C 137.028,398.529 114.194,376.695 106,339.5C 105.02,281.463 105.353,223.463 107,165.5C 116.985,130.007 140.152,109.674 176.5,104.5 Z"/></g>
</svg>
