<svg xmlns="http://www.w3.org/2000/svg" width="48" height="48" fill="none" viewBox="0 0 48 48"><path fill="#fff" d="M24 48C37.2548 48 48 37.2548 48 24C48 10.7452 37.2548 0 24 0C10.7452 0 0 10.7452 0 24C0 37.2548 10.7452 48 24 48Z"/><path fill="url(#paint0_linear)" d="M18.7611 21.0989C24.5926 19.1248 25.5852 13.9825 24.8407 9.25454C24.8407 9.08394 24.9896 8.96209 25.1385 9.01083C30.7218 11.6917 37 17.5407 37 26.3143C37 33.0408 31.6896 38.9873 23.9722 38.9873C18.3073 39.2403 13.1887 35.689 11.5383 30.3608C9.88789 25.0325 12.1258 19.2834 16.9744 16.3953C17.1233 16.2978 17.3218 16.3953 17.3218 16.5659C17.3963 17.4676 17.6444 19.7341 18.6618 21.0989H18.7611Z"/><defs><linearGradient id="paint0_linear" x1="28.944" x2="-10.306" y1="-11.704" y2="12.94" gradientUnits="userSpaceOnUse"><stop stop-color="#FF7854"/><stop offset="1" stop-color="#FD267D"/></linearGradient></defs></svg>